<?xml version="1.0" encoding="UTF-8" standalone="no"?>
<svg
   xmlns:dc="http://purl.org/dc/elements/1.1/"
   xmlns:cc="http://creativecommons.org/ns#"
   xmlns:rdf="http://www.w3.org/1999/02/22-rdf-syntax-ns#"
   xmlns:svg="http://www.w3.org/2000/svg"
   xmlns="http://www.w3.org/2000/svg"
   xmlns:sodipodi="http://sodipodi.sourceforge.net/DTD/sodipodi-0.dtd"
   xmlns:inkscape="http://www.inkscape.org/namespaces/inkscape"
   version="1.1"
   id="svg2"
   xml:space="preserve"
   width="1333.3333"
   height="1333.3333"
   viewBox="0 0 1333.3333 1333.3333"
   sodipodi:docname="1pt REVISED LockUp Black.ai.svg"
   inkscape:version="1.0.2 (e86c870879, 2021-01-15)"><metadata
     id="metadata8"><rdf:RDF><cc:Work
         rdf:about=""><dc:format>image/svg+xml</dc:format><dc:type
           rdf:resource="http://purl.org/dc/dcmitype/StillImage" /><dc:title></dc:title></cc:Work></rdf:RDF></metadata><defs
     id="defs6"><clipPath
       clipPathUnits="userSpaceOnUse"
       id="clipPath18"><path
         d="M 0,1000 H 1000 V 0 H 0 Z"
         id="path16" /></clipPath></defs><sodipodi:namedview
     pagecolor="#ffffff"
     bordercolor="#666666"
     borderopacity="1"
     objecttolerance="10"
     gridtolerance="10"
     guidetolerance="10"
     inkscape:pageopacity="1"
     inkscape:pageshadow="2"
     inkscape:window-width="859"
     inkscape:window-height="480"
     id="namedview4"
     showgrid="false"
     inkscape:zoom="0.64575004"
     inkscape:cx="666.66663"
     inkscape:cy="666.66663"
     inkscape:window-x="0"
     inkscape:window-y="0"
     inkscape:window-maximized="0"
     inkscape:current-layer="g10" /><g
     id="g10"
     inkscape:groupmode="layer"
     inkscape:label="1pt REVISED LockUp Black"
     transform="matrix(1.3333333,0,0,-1.3333333,0,1333.3333)"><g
       id="g12"><g
         id="g14"
         clip-path="url(#clipPath18)"><g
           id="g20"
           transform="translate(280.2773,876.2153)"><path
             d="m 0,0 h 6.696 v -161.607 c 0,-13.292 0.176,-21.662 0.533,-25.109 0.354,-3.451 1.799,-6.087 4.336,-7.913 2.535,-1.827 7.05,-2.739 13.543,-2.739 h 5.936 v -7 h -68.479 v 7 h 5.022 c 7.305,0 12.046,1.039 14.229,3.119 2.18,2.078 3.447,4.566 3.804,7.457 0.354,2.891 0.533,11.284 0.533,25.185 v 108.346 c 0,13.696 -0.153,21.99 -0.457,24.881 -0.304,2.89 -1.598,5.425 -3.88,7.609 -2.283,2.179 -7.027,3.271 -14.229,3.271 h -6.543 v 7 C -21.406,-10.196 -8.421,-6.696 0,0"
             style="fill:#000000;fill-opacity:1;fill-rule:nonzero;stroke:none"
             id="path22" /></g><g
           id="g24"
           transform="translate(421.9756,545.3823)"><path
             d="m 0,0 c 9.396,-11.484 19.356,-20.143 29.886,-25.971 10.526,-5.832 21.619,-8.744 33.28,-8.744 19.661,0 36.803,8.438 51.42,25.319 14.617,16.876 21.926,43.761 21.926,80.654 0,32.015 -7.048,55.943 -21.143,71.779 -14.095,15.833 -30.89,23.753 -50.376,23.753 -12.007,0 -23.406,-3.047 -34.193,-9.136 C 20.009,151.562 9.743,142.34 0,129.986 Z m -11.485,182.19 h 7.048 C -1.481,172.443 0,160.697 0,146.953 c 11.134,11.831 23.1,20.661 35.89,26.493 12.789,5.827 26.317,8.744 40.588,8.744 29.58,0 54.202,-10.4 73.868,-31.191 19.661,-20.797 29.494,-48.248 29.494,-82.352 0,-33.41 -9.877,-61.338 -29.626,-83.786 -19.751,-22.447 -45.722,-33.671 -77.913,-33.671 -13.226,0 -25.885,2.655 -37.978,7.961 C 22.228,-35.543 10.787,-27.667 0,-17.227 v -81.176 c 0,-24.707 0.477,-54.482 1.436,-59.879 0.954,-5.39 3.695,-9.437 8.221,-12.135 4.523,-2.698 12.962,-4.047 25.319,-4.047 v -12.007 H -76.739 v 12.007 h 7.83 c 12.354,0 20.401,1.786 24.144,5.349 3.74,3.57 5.914,7.831 6.526,12.792 0.607,4.958 0.913,34.082 0.913,57.92 V 95.793 c 0,22.794 -0.306,37.15 -0.913,43.068 -0.612,5.914 -3.091,10.441 -7.439,13.573 -4.352,3.132 -12.096,4.698 -23.231,4.698 h -7.83 v 12.007 c 17.227,1.737 38.977,6.089 65.254,13.051"
             style="fill:#000000;fill-opacity:1;fill-rule:nonzero;stroke:none"
             id="path26" /></g><g
           id="g28"
           transform="translate(750.3271,706.9517)"><path
             d="m 0,0 h -64.472 v -129.203 c 0,-19.838 0.869,-33.194 2.611,-40.066 1.737,-6.876 5.437,-12.398 11.093,-16.575 5.653,-4.176 11.701,-6.264 18.141,-6.264 12.528,0 23.401,7.133 32.627,21.403 l 8.353,-4.959 c -5.397,-11.485 -13.357,-20.144 -23.884,-25.971 -10.53,-5.828 -21.187,-8.744 -31.974,-8.744 -12.529,0 -23.536,3.699 -33.018,11.093 -9.487,7.394 -15.402,16.053 -17.749,25.971 -2.351,9.919 -3.525,27.317 -3.525,52.203 V 0 h -31.06 v 12.007 c 14.265,0.347 27.055,6.35 38.369,18.01 11.309,11.656 18.532,28.014 21.664,49.071 h 8.352 V 12.007 l 64.472,0 z"
             style="fill:#000000;fill-opacity:1;fill-rule:nonzero;stroke:none"
             id="path30" /></g><g
           id="g32"
           transform="translate(153.0269,257.0059)"><path
             d="m 0,0 c -11.104,0 -19.596,-3.907 -25.482,-11.718 -5.886,-7.812 -8.829,-19.099 -8.829,-33.861 0,-14.571 2.919,-25.81 8.757,-33.719 5.837,-7.909 14.163,-11.861 24.98,-11.861 11.484,0 20.169,3.858 26.055,11.574 5.886,7.717 8.829,19.147 8.829,34.293 0,14.57 -2.968,25.762 -8.9,33.574 C 19.474,-3.907 11.004,0 0,0 m 0,4.45 c 7.465,0 14.306,-1.245 20.528,-3.732 6.221,-2.489 11.579,-5.936 16.079,-10.336 4.497,-4.403 8.015,-9.691 10.552,-15.863 2.534,-6.173 3.804,-12.898 3.804,-20.17 0,-14.93 -4.93,-27.182 -14.787,-36.751 -9.474,-9.188 -21.726,-13.782 -36.75,-13.782 -7.275,0 -13.997,1.27 -20.17,3.805 -6.173,2.534 -11.485,6.029 -15.935,10.48 -4.45,4.45 -7.921,9.761 -10.408,15.934 -2.49,6.173 -3.733,12.896 -3.733,20.17 0,7.273 1.243,13.997 3.733,20.17 2.487,6.173 5.98,11.484 10.48,15.935 4.497,4.45 9.856,7.919 16.078,10.408 C -14.309,3.205 -7.465,4.45 0,4.45"
             style="fill:000000;fill-opacity:1;fill-rule:nonzero;stroke:none"
             id="path34" /></g><g
           id="g36"
           transform="translate(217.3384,219.8242)"><path
             d="m 0,0 c 2.584,0.382 4.666,0.693 6.245,0.934 1.579,0.237 3.015,0.477 4.307,0.717 1.292,0.238 2.584,0.55 3.876,0.933 1.292,0.382 3.037,0.861 5.239,1.436 0.766,-1.436 1.268,-2.706 1.508,-3.804 0.238,-1.102 0.359,-2.369 0.359,-3.805 v -1.148 c 3.539,3.253 7.034,5.621 10.48,7.106 3.445,1.483 7.128,2.225 11.053,2.225 3.827,0 7.154,-0.718 9.978,-2.154 2.822,-1.435 4.903,-3.398 6.245,-5.885 0.764,-1.533 1.267,-2.992 1.507,-4.378 0.238,-1.389 0.359,-3.711 0.359,-6.963 v -25.841 c 0,-4.212 0.693,-7.155 2.081,-8.828 1.387,-1.676 3.899,-2.562 7.537,-2.656 v -4.451 H 39.622 v 4.451 c 3.636,0.094 6.149,0.98 7.537,2.656 1.386,1.673 2.081,4.616 2.081,8.828 v 23.975 c 0,9.282 -4.163,13.924 -12.489,13.924 -2.777,0 -5.265,-0.501 -7.465,-1.506 -2.203,-1.005 -4.787,-2.8 -7.752,-5.384 v -31.009 c 0,-4.212 0.693,-7.155 2.081,-8.828 1.386,-1.676 3.899,-2.562 7.537,-2.656 v -4.451 H 0 v 4.451 c 3.636,0.094 6.148,0.98 7.537,2.656 1.386,1.673 2.082,4.616 2.082,8.828 v 24.692 c 0,4.114 -0.718,7.035 -2.154,8.757 C 6.029,-5.455 3.54,-4.499 0,-4.307 Z"
             style="fill:000000;fill-opacity:1;fill-rule:nonzero;stroke:none"
             id="path38" /></g><g
           id="g40"
           transform="translate(340.7974,200.3008)"><path
             d="m 0,0 c 0,2.774 -0.121,4.975 -0.359,6.604 -0.24,1.625 -0.599,3.109 -1.077,4.45 -1.915,5.168 -5.838,7.752 -11.772,7.752 -4.499,0 -8.039,-1.651 -10.623,-4.952 C -26.415,10.552 -27.803,5.933 -27.994,0 Z m -28.137,-5.024 c -0.097,-0.481 -0.144,-0.958 -0.144,-1.436 v -1.005 c 0,-17.133 6.267,-25.697 18.806,-25.697 3.636,0 6.866,0.837 9.69,2.513 2.822,1.672 5.621,4.472 8.398,8.397 l 4.164,-2.297 C 9.712,-29.43 6.195,-32.996 2.225,-35.243 c -3.973,-2.248 -8.638,-3.374 -13.996,-3.374 -4.404,0 -8.423,0.742 -12.06,2.225 -3.638,1.483 -6.747,3.589 -9.331,6.317 -2.584,2.727 -4.571,5.979 -5.958,9.762 -1.388,3.779 -2.081,7.967 -2.081,12.561 0,4.594 0.718,8.851 2.153,12.776 1.436,3.923 3.396,7.297 5.886,10.122 2.488,2.821 5.478,5.024 8.973,6.603 3.492,1.579 7.296,2.368 11.413,2.368 7.846,0 14.019,-2.536 18.518,-7.608 4.498,-5.073 6.842,-12.252 7.035,-21.533 z"
             style="fill:000000;fill-opacity:1;fill-rule:nonzero;stroke:none"
             id="path42" /></g><g
           id="g44"
           transform="translate(444.4468,213.2207)"><path
             d="m 0,0 c 6.316,0 11.197,1.817 14.643,5.455 3.445,3.637 5.168,8.9 5.168,15.792 0,3.923 -0.574,7.368 -1.723,10.336 -1.148,2.965 -2.824,5.215 -5.024,6.747 -1.723,1.242 -3.757,2.129 -6.102,2.656 -2.346,0.525 -5.336,0.789 -8.972,0.789 -1.341,0 -2.68,-0.024 -4.019,-0.071 -1.342,-0.05 -3.015,-0.121 -5.025,-0.216 V 0 Z m -11.054,-34.023 c 0,-2.297 0.166,-4.164 0.503,-5.599 0.334,-1.436 1.027,-2.562 2.081,-3.373 1.052,-0.815 2.512,-1.413 4.379,-1.795 1.866,-0.384 4.329,-0.623 7.393,-0.718 v -4.45 h -43.068 v 4.45 c 3.062,0.095 5.527,0.334 7.394,0.718 1.866,0.382 3.324,0.98 4.378,1.795 1.052,0.811 1.745,1.937 2.082,3.373 0.334,1.435 0.502,3.302 0.502,5.599 V 29.86 c 0,2.297 -0.193,4.163 -0.574,5.599 -0.384,1.436 -1.077,2.584 -2.081,3.445 -1.005,0.862 -2.466,1.458 -4.379,1.795 -1.916,0.334 -4.356,0.549 -7.322,0.646 v 4.45 h 33.737 c 4.881,0 8.804,-0.024 11.771,-0.071 2.966,-0.05 5.406,-0.194 7.322,-0.431 1.913,-0.24 3.492,-0.552 4.737,-0.934 1.243,-0.383 2.584,-0.91 4.02,-1.579 4.401,-2.009 7.752,-4.905 10.049,-8.685 2.297,-3.782 3.445,-8.254 3.445,-13.422 0,-4.882 -1.101,-9.213 -3.302,-12.992 C 29.811,3.898 26.702,0.956 22.682,-1.148 20.385,-2.394 17.752,-3.255 14.787,-3.732 11.819,-4.213 7.846,-4.45 2.871,-4.45 h -13.925 z"
             style="fill:#00000;fill-opacity:1;fill-rule:nonzero;stroke:none"
             id="path46" /></g><g
           id="g48"
           transform="translate(524.5518,195.9941)"><path
             d="m 0,0 c -1.055,-0.48 -2.609,-1.055 -4.666,-1.723 -2.059,-0.671 -4.859,-1.532 -8.398,-2.584 -3.159,-0.958 -5.623,-2.465 -7.394,-4.522 -1.771,-2.06 -2.655,-4.475 -2.655,-7.25 0,-2.776 0.908,-5.096 2.727,-6.962 1.817,-1.866 4.114,-2.8 6.892,-2.8 4.496,0 8.994,1.913 13.494,5.742 z m 26.127,-20.099 c -2.297,-9.474 -7.084,-14.212 -14.356,-14.212 -6.988,0 -10.91,3.397 -11.771,10.193 -1.246,-1.436 -2.705,-2.777 -4.379,-4.02 -1.676,-1.245 -3.424,-2.321 -5.24,-3.229 -1.819,-0.911 -3.686,-1.602 -5.599,-2.082 -1.916,-0.478 -3.732,-0.718 -5.455,-0.718 -4.594,0 -8.136,1.337 -10.623,4.009 -2.49,2.674 -3.733,6.491 -3.733,11.457 0,4.009 0.862,7.255 2.584,9.737 1.723,2.482 4.641,4.583 8.758,6.301 0.955,0.382 1.793,0.716 2.511,1.003 0.718,0.287 1.579,0.572 2.584,0.859 1.005,0.287 2.273,0.597 3.805,0.931 1.529,0.334 3.59,0.787 6.174,1.361 1.051,0.285 1.937,0.5 2.654,0.644 0.719,0.143 1.387,0.309 2.01,0.501 0.623,0.19 1.244,0.405 1.867,0.643 0.621,0.238 1.314,0.502 2.082,0.789 v 4.87 c 0,5.537 -0.574,9.257 -1.723,11.168 -0.767,1.145 -2.009,2.076 -3.732,2.793 -1.723,0.716 -3.639,1.075 -5.742,1.075 -2.872,0 -5.05,-0.623 -6.533,-1.867 -1.485,-1.245 -2.562,-3.398 -3.23,-6.46 -0.48,-2.106 -1.174,-3.613 -2.082,-4.522 -0.91,-0.91 -2.321,-1.363 -4.234,-1.363 -1.916,0 -3.495,0.43 -4.738,1.292 -1.245,0.861 -1.866,1.96 -1.866,3.301 0,2.872 1.579,5.646 4.737,8.327 4.307,3.827 10.574,5.742 18.807,5.742 7.846,0 13.828,-1.819 17.943,-5.455 0.862,-0.862 1.581,-1.676 2.155,-2.441 0.574,-0.766 1.027,-1.603 1.363,-2.511 0.334,-0.912 0.549,-1.988 0.646,-3.231 0.094,-1.245 0.143,-2.727 0.143,-4.45 v -31.44 c 0,-4.306 1.34,-6.459 4.02,-6.459 2.488,0 4.355,2.153 5.599,6.459 l 0.287,1.005 z"
             style="fill:000000;fill-opacity:1;fill-rule:nonzero;stroke:none"
             id="path50" /></g><g
           id="g52"
           transform="translate(578.958,179.1973)"><path
             d="m 0,0 c 0,-4.212 0.718,-7.155 2.153,-8.828 1.436,-1.676 3.923,-2.562 7.465,-2.656 l 0.861,-0.144 v -4.307 h -32.013 v 4.451 c 3.636,0.094 6.148,0.98 7.537,2.656 1.386,1.673 2.081,4.616 2.081,8.828 v 24.692 c 0,4.114 -0.718,7.035 -2.153,8.757 -1.436,1.723 -3.925,2.679 -7.465,2.871 v 4.307 c 2.584,0.382 4.666,0.693 6.245,0.934 1.579,0.237 3.015,0.477 4.307,0.717 1.292,0.238 2.606,0.55 3.947,0.933 1.34,0.382 3.062,0.861 5.169,1.435 C -1.102,43.211 -0.6,41.775 -0.359,40.34 -0.121,38.904 0,36.702 0,33.736 c 5.358,7.082 11.147,10.623 17.37,10.623 2.297,0 4.235,-0.717 5.815,-2.153 1.579,-1.435 2.368,-3.207 2.368,-5.311 0,-1.628 -0.528,-3.04 -1.579,-4.235 -1.054,-1.198 -2.346,-1.795 -3.876,-1.795 -0.862,0 -1.604,0.166 -2.226,0.503 -0.623,0.334 -1.269,0.98 -1.937,1.938 -1.436,2.104 -3.065,3.158 -4.881,3.158 -2.01,0 -4.07,-0.671 -6.173,-2.01 C 2.774,33.113 1.148,31.391 0,29.286 Z"
             style="fill:000000;fill-opacity:1;fill-rule:nonzero;stroke:none"
             id="path54" /></g><g
           id="g56"
           transform="translate(650.5908,218.8193)"><path
             d="m 0,0 h -15.935 v -37.147 c 0,-7.775 2.441,-11.663 7.322,-11.663 1.722,0 3.276,0.431 4.665,1.292 1.386,0.862 3.134,2.488 5.24,4.881 l 2.871,-2.44 c -4.594,-7.37 -10.576,-11.054 -17.944,-11.054 -4.978,0 -8.758,1.967 -11.342,5.902 -0.957,1.438 -1.65,3.187 -2.081,5.25 -0.431,2.064 -0.647,4.68 -0.647,7.847 V 0 h -7.034 v 3.141 c 4.307,1.045 7.681,3.472 10.121,7.281 2.441,3.807 3.755,8.898 3.948,15.275 h 4.881 V 4.45 L 0,4.45 Z"
             style="fill:000000;fill-opacity:1;fill-rule:nonzero;stroke:none"
             id="path58" /></g><g
           id="g60"
           transform="translate(791.5654,224.418)"><path
             d="m 0,0 h -4.45 c -5.455,21.341 -16.749,32.014 -33.88,32.014 -5.168,0 -9.812,-1.03 -13.925,-3.086 -4.116,-2.06 -7.608,-5.026 -10.479,-8.902 -2.871,-3.876 -5.075,-8.59 -6.604,-14.14 -1.532,-5.551 -2.297,-11.772 -2.297,-18.662 0,-6.701 0.836,-12.754 2.512,-18.161 1.674,-5.408 4.042,-10.001 7.106,-13.781 3.062,-3.782 6.747,-6.7 11.054,-8.757 4.307,-2.059 9.139,-3.087 14.499,-3.087 5.647,0 10.768,1.052 15.361,3.159 4.594,2.104 8.948,5.455 13.064,10.049 3.061,3.349 5.311,6.794 6.747,10.336 l 5.168,-4.019 c -1.054,-2.394 -2.202,-4.5 -3.445,-6.317 -1.245,-1.819 -2.92,-3.782 -5.025,-5.886 -9.668,-9.667 -21.533,-14.499 -35.602,-14.499 -7.083,0 -13.567,1.198 -19.452,3.589 -5.886,2.391 -10.935,5.764 -15.146,10.121 -4.212,4.353 -7.489,9.568 -9.833,15.647 -2.347,6.076 -3.518,12.752 -3.518,20.027 0,7.464 1.221,14.355 3.662,20.672 2.44,6.317 5.836,11.747 10.192,16.293 4.353,4.545 9.521,8.087 15.504,10.624 5.98,2.535 12.513,3.804 19.596,3.804 5.549,0 10.814,-0.789 15.792,-2.368 4.974,-1.579 9.952,-4.045 14.929,-7.394 0.478,0.765 1.005,1.842 1.579,3.231 0.575,1.386 1.099,2.75 1.579,4.091 h 4.02 z"
             style="fill:000000;fill-opacity:1;fill-rule:nonzero;stroke:none"
             id="path62" /></g><g
           id="g64"
           transform="translate(839.083,219.9678)"><path
             d="m 0,0 c -12.155,0 -18.232,-9.163 -18.232,-27.489 0,-8.783 1.507,-15.416 4.522,-19.903 3.015,-4.486 7.44,-6.729 13.279,-6.729 5.933,0 10.455,2.29 13.567,6.873 3.108,4.58 4.665,11.263 4.665,20.044 C 17.801,-9.068 11.866,0 0,0 m 0,4.45 c 9.569,0 17.083,-2.752 22.538,-8.254 5.455,-5.505 8.184,-13.185 8.184,-23.041 0,-4.787 -0.743,-9.093 -2.226,-12.921 -1.485,-3.828 -3.589,-7.13 -6.316,-9.905 -2.728,-2.776 -6.007,-4.905 -9.834,-6.388 -3.829,-1.483 -8.089,-2.225 -12.777,-2.225 -9.571,0 -17.084,2.75 -22.539,8.255 -5.455,5.502 -8.182,13.039 -8.182,22.61 0,4.784 0.74,9.138 2.225,13.064 1.483,3.922 3.589,7.272 6.317,10.048 2.727,2.775 6.005,4.929 9.834,6.46 C -8.95,3.684 -4.69,4.45 0,4.45"
             style="fill:000000;fill-opacity:1;fill-rule:nonzero;stroke:none"
             id="path66" /></g><g
           id="g68"
           transform="translate(884.876,177.3311)"><path
             d="m 0,0 c 2.297,0 4.211,-0.767 5.742,-2.297 1.53,-1.532 2.298,-3.398 2.298,-5.599 0,-2.296 -0.768,-4.211 -2.298,-5.742 -1.531,-1.529 -3.445,-2.297 -5.742,-2.297 -2.202,0 -4.068,0.768 -5.599,2.297 -1.532,1.531 -2.297,3.446 -2.297,5.742 0,2.201 0.765,4.067 2.297,5.599 C -4.068,-0.767 -2.202,0 0,0"
             style="fill:000000;fill-opacity:1;fill-rule:nonzero;stroke:none"
             id="path70" /></g></g></g></g></svg>
